<?xml version="1.0" standalone="no"?>
<!DOCTYPE svg PUBLIC "-//W3C//DTD SVG 20010904//EN"
 "http://www.w3.org/TR/2001/REC-SVG-20010904/DTD/svg10.dtd">
<svg version="1.0" xmlns="http://www.w3.org/2000/svg"
 width="128.000000pt" height="128.000000pt" viewBox="0 0 128.000000 128.000000"
 preserveAspectRatio="xMidYMid meet">

<g transform="translate(0.000000,128.000000) scale(0.100000,-0.100000)"
fill="#e2e2e2" stroke="none">
<path d="M478 1259 c-64 -33 -78 -76 -78 -229 l0 -130 -140 0 c-166 0 -206
-13 -240 -80 -19 -37 -20 -58 -20 -370 0 -376 2 -385 78 -428 39 -22 46 -22
371 -22 377 0 386 2 429 78 20 36 22 53 22 181 l0 141 130 0 c154 0 191 13
228 78 22 39 22 47 22 361 0 303 -1 324 -20 361 -13 26 -34 47 -60 60 -37 19
-58 20 -362 20 -302 -1 -325 -2 -360 -21z m686 -95 c14 -13 16 -57 16 -324 0
-267 -2 -311 -16 -324 -13 -14 -57 -16 -324 -16 -267 0 -311 2 -324 16 -14 13
-16 57 -16 324 0 267 2 311 16 324 13 14 57 16 324 16 267 0 311 -2 324 -16z
m-764 -504 c0 -165 12 -200 78 -238 36 -20 53 -22 181 -22 l141 0 0 -134 c0
-109 -3 -138 -16 -150 -13 -14 -58 -16 -334 -16 -276 0 -321 2 -334 16 -14 13
-16 58 -16 334 0 276 2 321 16 334 12 13 41 16 150 16 l134 0 0 -140z"/>
<path d="M616 884 c-9 -8 -16 -24 -16 -34 0 -36 27 -50 100 -50 90 0 100 -10
100 -100 0 -73 14 -100 50 -100 37 0 50 27 50 106 0 95 -23 145 -80 174 -51
26 -180 29 -204 4z"/>
</g>
</svg>
