<?xml version="1.0" standalone="no"?>
<!DOCTYPE svg PUBLIC "-//W3C//DTD SVG 20010904//EN"
 "http://www.w3.org/TR/2001/REC-SVG-20010904/DTD/svg10.dtd">
<svg version="1.0" xmlns="http://www.w3.org/2000/svg"
 width="128.000000pt" height="128.000000pt" viewBox="0 0 128.000000 128.000000"
 preserveAspectRatio="xMidYMid meet">

<g transform="translate(0.000000,128.000000) scale(0.100000,-0.100000)"
fill="#e2e2e2" stroke="none">
<path d="M603 1240 c-32 -13 -91 -92 -156 -211 l-57 -105 -88 -12 c-126 -17
-242 -49 -269 -74 -29 -28 -39 -79 -22 -121 7 -17 63 -82 124 -142 l110 -111
-17 -99 c-20 -119 -23 -234 -6 -270 14 -30 55 -55 92 -55 32 0 106 28 230 88
l99 47 134 -67 c74 -37 150 -70 170 -74 47 -9 97 16 119 57 18 37 15 125 -11
287 l-14 87 93 95 c145 146 165 185 130 251 -21 42 -76 64 -225 90 -68 12
-129 23 -136 25 -7 2 -26 31 -44 66 -17 35 -55 100 -85 145 -66 102 -109 128
-171 103z m81 -145 c20 -31 59 -98 87 -149 27 -52 55 -99 62 -104 7 -5 71 -19
142 -31 144 -24 205 -40 205 -54 0 -5 -54 -63 -120 -129 -78 -79 -120 -128
-120 -142 0 -11 9 -82 20 -156 11 -74 20 -150 20 -168 0 -30 -3 -33 -22 -27
-13 3 -89 39 -170 80 l-147 74 -143 -69 c-197 -95 -188 -93 -188 -28 0 29 10
110 22 181 l21 128 -126 124 c-70 68 -127 128 -127 133 0 14 100 39 230 58 63
9 118 18 122 20 3 2 27 42 51 88 44 83 133 226 140 226 2 0 21 -25 41 -55z"/>
</g>
</svg>
