<?xml version="1.0" encoding="UTF-8" ?>
<!DOCTYPE svg PUBLIC "-//W3C//DTD SVG 1.1//EN" "http://www.w3.org/Graphics/SVG/1.1/DTD/svg11.dtd">
<svg width="128pt" height="128pt" viewBox="0 0 128 128" version="1.1" xmlns="http://www.w3.org/2000/svg">
<g id="#000000ff">
<path fill="#000000" opacity="1.00" d=" M 33.92 0.00 L 39.54 0.00 C 48.24 0.76 56.81 3.24 64.42 7.55 C 66.13 8.48 67.88 9.91 67.97 12.03 C 68.41 15.17 65.18 18.23 62.07 17.35 C 58.87 16.23 56.02 14.30 52.82 13.15 C 44.04 9.79 33.98 8.70 25.04 12.10 C 19.05 14.35 14.08 18.60 9.90 23.36 C 18.19 26.93 27.71 28.69 36.46 25.68 C 40.12 24.67 43.24 22.04 47.03 21.52 C 51.24 21.50 53.43 27.45 50.15 30.10 C 38.95 37.78 24.07 39.14 11.38 34.56 C 6.33 33.20 0.90 30.42 0.00 24.69 L 0.00 22.16 C 0.51 20.40 1.05 18.60 2.19 17.13 C 9.82 7.37 21.50 0.84 33.92 0.00 Z" />
<path fill="#000000" opacity="1.00" d=" M 71.08 29.83 C 67.95 25.71 73.87 19.98 77.94 23.08 C 81.49 26.34 83.69 30.77 86.06 34.90 C 94.97 52.20 99.41 71.39 102.50 90.47 C 102.77 92.85 103.58 95.72 101.66 97.64 C 99.50 100.18 94.90 99.57 93.58 96.50 C 92.58 93.43 92.32 90.19 91.83 87.01 C 86.71 89.02 80.56 91.88 79.58 97.96 C 78.40 109.65 90.30 120.02 101.74 117.73 C 113.21 116.20 121.10 103.05 116.88 92.23 C 115.97 88.68 112.00 87.24 110.66 84.02 C 109.39 80.12 114.11 76.21 117.68 78.30 C 124.30 81.92 127.42 89.59 128.00 96.81 L 128.00 100.43 C 127.33 107.71 124.21 114.80 118.86 119.84 C 113.72 124.86 106.66 127.65 99.52 128.00 L 97.65 128.00 C 92.88 127.70 88.13 126.45 84.00 124.01 C 73.43 118.04 66.79 104.52 70.71 92.67 C 73.65 84.32 82.01 79.79 89.93 77.17 C 86.23 60.56 81.23 43.74 71.08 29.83 Z" />
<path fill="#000000" opacity="1.00" d=" M 55.96 37.68 C 56.84 34.02 61.93 32.73 64.40 35.60 C 66.63 37.77 65.45 40.99 64.50 43.47 C 57.42 61.84 47.63 79.16 35.77 94.85 C 33.76 98.35 27.99 97.77 26.79 93.91 C 25.62 90.59 28.62 87.96 30.27 85.44 C 24.45 84.53 17.06 83.72 12.92 88.91 C 6.60 97.92 11.15 111.64 20.99 116.06 C 30.27 120.87 42.82 116.31 46.85 106.66 C 48.91 102.72 48.59 98.23 47.92 93.99 C 47.63 90.42 52.21 88.05 55.14 89.86 C 57.68 91.24 58.09 94.44 58.45 97.02 C 59.17 106.34 54.87 115.84 47.55 121.61 C 42.72 125.49 36.64 127.62 30.48 128.00 L 28.56 128.00 C 21.40 127.67 14.32 124.90 9.17 119.87 C 3.85 114.89 0.74 107.88 0.00 100.68 L 0.00 96.97 C 0.54 89.67 3.61 81.97 10.19 78.12 C 18.07 73.38 27.82 74.50 36.35 76.62 C 44.19 64.36 50.97 51.37 55.96 37.68 Z" />
</g>
</svg>
