<?xml version="1.0" encoding="UTF-8" ?>
<!DOCTYPE svg PUBLIC "-//W3C//DTD SVG 1.1//EN" "http://www.w3.org/Graphics/SVG/1.1/DTD/svg11.dtd">
<svg width="128pt" height="128pt" viewBox="0 0 128 128" version="1.1" xmlns="http://www.w3.org/2000/svg">
<g id="#000000ff">
<path fill="#000000" opacity="1.00" d=" M 110.83 0.00 L 113.67 0.00 C 120.84 0.23 126.76 5.96 128.00 12.88 L 128.00 16.49 C 127.73 22.81 120.28 26.40 121.55 32.94 C 123.40 50.22 122.74 68.20 116.58 84.62 C 112.07 96.90 103.19 107.65 91.40 113.52 C 73.49 122.63 52.62 123.29 33.01 121.23 C 26.21 120.27 22.56 128.37 15.71 128.00 L 13.16 128.00 C 6.12 126.95 0.28 120.95 0.00 113.74 L 0.00 111.21 C 0.34 104.94 7.68 101.43 6.71 94.98 C 4.97 78.21 5.33 60.84 10.85 44.75 C 15.18 31.92 24.20 20.57 36.41 14.46 C 54.41 5.32 75.38 4.44 95.12 6.42 C 101.38 7.54 104.87 0.62 110.83 0.00 M 111.24 10.35 C 108.73 11.72 106.77 13.95 104.12 15.10 C 100.68 16.71 96.79 16.69 93.09 16.29 C 81.71 15.10 70.12 15.18 58.86 17.37 C 45.12 19.76 31.19 26.65 24.29 39.31 C 15.03 56.18 14.84 76.29 16.75 94.96 C 17.17 99.29 15.94 103.77 13.23 107.18 C 11.80 109.23 9.41 111.23 10.10 114.03 C 10.60 117.51 15.35 119.32 17.95 116.84 C 22.10 113.22 27.39 110.47 33.07 111.20 C 42.97 112.24 52.98 112.73 62.89 111.47 C 76.39 109.89 90.57 105.35 99.53 94.55 C 109.42 82.42 112.03 66.19 112.46 50.99 C 112.79 43.98 111.63 37.03 111.43 30.04 C 111.29 25.06 114.32 21.00 117.27 17.32 C 119.86 13.62 115.28 8.40 111.24 10.35 Z" />
<path fill="#000000" opacity="1.00" d=" M 88.24 52.28 C 92.25 49.82 97.96 53.38 97.48 58.08 C 97.45 62.63 91.76 65.61 87.99 63.07 C 83.96 60.85 84.11 54.31 88.24 52.28 Z" />
<path fill="#000000" opacity="1.00" d=" M 66.32 60.37 C 70.31 57.75 76.15 61.27 75.72 65.99 C 75.77 70.69 69.77 73.74 66.01 70.92 C 62.25 68.62 62.44 62.45 66.32 60.37 Z" />
<path fill="#000000" opacity="1.00" d=" M 85.19 74.27 C 89.67 72.68 94.55 77.47 92.99 81.98 C 91.90 86.49 85.48 88.06 82.45 84.52 C 79.26 81.42 80.87 75.37 85.19 74.27 Z" />
</g>
</svg>
