<?xml version="1.0" encoding="UTF-8" ?>
<!DOCTYPE svg PUBLIC "-//W3C//DTD SVG 1.1//EN" "http://www.w3.org/Graphics/SVG/1.1/DTD/svg11.dtd">
<svg width="128pt" height="128pt" viewBox="0 0 128 128" version="1.1" xmlns="http://www.w3.org/2000/svg">
<g id="#000000ff">
<path fill="#000000" opacity="1.00" d=" M 122.21 0.00 L 124.74 0.00 C 125.57 1.27 126.69 2.39 128.00 3.17 L 128.00 6.15 C 126.41 10.36 120.94 10.09 118.62 13.67 C 116.52 16.00 115.63 20.07 112.01 20.46 C 108.65 20.98 105.47 17.25 106.79 14.05 C 109.53 7.50 114.84 1.16 122.21 0.00 Z" />
<path fill="#000000" opacity="1.00" d=" M 32.40 23.39 C 42.22 13.65 56.13 8.23 69.96 8.82 C 83.23 9.21 96.17 15.13 105.23 24.81 C 115.27 35.31 120.59 50.31 118.88 64.79 C 116.79 79.23 108.96 92.55 98.00 102.07 C 81.08 117.71 58.64 127.41 35.52 128.00 L 28.95 128.00 C 21.20 127.34 13.00 126.11 6.61 121.32 C 2.99 118.69 0.69 114.56 0.00 110.17 L 0.00 106.76 C 1.42 96.89 9.75 90.09 12.62 80.79 C 15.77 70.94 17.44 60.70 18.73 50.47 C 20.13 40.26 24.92 30.52 32.40 23.39 M 60.48 19.56 C 44.94 22.33 31.07 34.94 28.78 50.88 C 27.18 63.09 25.33 75.41 20.98 87.00 C 18.29 94.13 12.50 99.69 10.16 106.96 C 9.05 113.08 16.04 115.89 20.88 116.79 C 45.54 121.29 71.47 112.37 89.95 95.84 C 101.29 86.42 109.76 72.15 109.13 57.07 C 108.37 44.17 100.97 31.95 90.02 25.14 C 81.34 19.64 70.57 17.67 60.48 19.56 Z" />
<path fill="#000000" opacity="1.00" d=" M 90.36 57.41 C 94.96 56.14 99.50 61.28 97.59 65.69 C 96.22 69.88 90.17 71.13 87.25 67.82 C 83.85 64.61 85.77 58.24 90.36 57.41 Z" />
<path fill="#000000" opacity="1.00" d=" M 78.34 75.36 C 82.34 72.74 88.21 76.32 87.72 81.07 C 87.70 85.72 81.77 88.71 78.03 85.93 C 74.25 83.64 74.43 77.43 78.34 75.36 Z" />
</g>
</svg>
