<?xml version="1.0" encoding="UTF-8" ?>
<!DOCTYPE svg PUBLIC "-//W3C//DTD SVG 1.1//EN" "http://www.w3.org/Graphics/SVG/1.1/DTD/svg11.dtd">
<svg width="128pt" height="128pt" viewBox="0 0 128 128" version="1.1" xmlns="http://www.w3.org/2000/svg">
<g id="#000000ff">
<path fill="#000000" opacity="1.00" d=" M 42.22 0.00 L 44.33 0.00 C 48.25 1.77 51.84 4.16 55.60 6.23 C 57.94 4.02 60.24 1.71 62.99 0.00 L 65.36 0.00 C 68.23 1.63 70.57 3.97 72.93 6.23 C 76.52 4.15 80.00 1.86 83.72 0.00 L 85.82 0.00 C 87.77 0.94 89.92 2.53 89.67 4.97 C 88.87 10.11 85.91 14.78 85.85 20.06 C 86.44 23.77 90.72 24.23 93.55 25.44 C 113.41 32.48 127.62 52.46 128.00 73.51 L 128.00 76.24 C 127.61 91.14 120.71 105.73 109.28 115.32 C 100.16 123.20 88.29 127.62 76.27 128.00 L 51.81 128.00 C 37.37 127.63 23.21 121.16 13.62 110.36 C 5.20 101.13 0.40 88.84 0.00 76.38 L 0.00 73.54 C 0.35 52.49 14.56 32.53 34.39 25.45 C 37.25 24.31 41.32 23.57 41.87 19.92 C 41.98 14.73 39.17 10.04 38.58 4.95 C 38.31 2.56 40.43 1.07 42.22 0.00 M 64.26 12.03 C 60.97 15.33 56.29 16.85 51.71 15.60 C 52.49 20.59 51.24 25.96 47.61 29.60 C 44.13 33.43 38.72 34.07 34.29 36.30 C 21.33 42.50 11.97 55.59 10.33 69.87 C 8.95 81.10 12.23 92.83 19.32 101.66 C 27.11 111.56 39.41 117.75 52.02 117.95 C 60.02 118.04 68.02 118.04 76.02 117.95 C 89.57 117.74 102.74 110.59 110.35 99.39 C 118.31 88.07 120.19 72.79 115.21 59.88 C 110.52 47.18 99.50 37.16 86.48 33.51 C 79.02 31.43 74.47 23.28 76.05 15.79 C 71.69 16.68 67.36 15.14 64.26 12.03 Z" />
<path fill="#000000" opacity="1.00" d=" M 62.36 37.37 C 65.43 35.96 69.35 38.52 69.19 41.92 C 69.36 61.28 69.17 80.64 69.28 100.00 C 69.16 102.08 69.56 104.51 68.07 106.21 C 66.27 108.50 62.47 108.58 60.57 106.37 C 59.13 104.97 59.29 102.83 59.23 101.00 C 59.28 81.65 59.23 62.29 59.25 42.94 C 59.06 40.67 60.10 38.20 62.36 37.37 Z" />
<path fill="#000000" opacity="1.00" d=" M 80.33 49.49 C 84.52 47.50 89.74 51.49 88.94 56.05 C 88.54 60.70 82.36 63.23 78.84 60.11 C 75.17 57.43 76.07 51.06 80.33 49.49 Z" />
<path fill="#000000" opacity="1.00" d=" M 97.21 59.35 C 101.77 57.51 106.89 62.45 105.21 67.07 C 104.10 71.33 98.16 72.97 95.03 69.85 C 91.56 66.94 92.84 60.63 97.21 59.35 Z" />
<path fill="#000000" opacity="1.00" d=" M 80.39 69.47 C 84.55 67.55 89.68 71.46 88.95 75.98 C 88.60 80.67 82.38 83.25 78.84 80.11 C 75.15 77.42 76.08 71.00 80.39 69.47 Z" />
<path fill="#000000" opacity="1.00" d=" M 97.19 79.36 C 101.74 77.50 106.88 82.42 105.22 87.05 C 104.13 91.28 98.26 92.96 95.11 89.92 C 91.55 87.04 92.80 80.66 97.19 79.36 Z" />
<path fill="#000000" opacity="1.00" d=" M 80.40 89.46 C 84.56 87.56 89.69 91.47 88.95 95.98 C 88.60 100.68 82.35 103.25 78.82 100.10 C 75.14 97.39 76.10 90.98 80.40 89.46 Z" />
</g>
</svg>
