<?xml version="1.0" encoding="UTF-8" ?>
<!DOCTYPE svg PUBLIC "-//W3C//DTD SVG 1.1//EN" "http://www.w3.org/Graphics/SVG/1.1/DTD/svg11.dtd">
<svg width="128pt" height="128pt" viewBox="0 0 128 128" version="1.1" xmlns="http://www.w3.org/2000/svg">
<g id="#000000ff">
<path fill="#000000" opacity="1.00" d=" M 64.75 0.00 L 67.57 0.00 C 71.37 0.51 75.04 2.56 76.94 5.99 C 78.67 8.68 78.51 11.97 78.81 15.03 C 79.27 21.38 82.72 27.37 87.74 31.24 C 97.61 38.92 108.77 45.42 116.29 55.66 C 123.17 64.85 125.75 76.65 125.26 87.97 C 124.66 99.47 118.16 110.18 108.91 116.86 C 99.75 123.65 88.40 126.46 77.29 128.00 L 74.41 128.00 C 70.90 127.50 67.53 126.21 63.97 126.03 C 60.88 126.16 57.96 127.28 54.98 128.00 L 51.76 128.00 C 40.22 126.65 28.40 124.00 18.78 117.16 C 9.54 110.82 3.48 100.15 2.76 88.97 C 2.02 76.89 5.30 64.43 12.74 54.79 C 21.69 42.91 34.85 35.45 46.23 26.23 C 51.25 22.14 53.48 15.84 54.75 9.70 C 55.70 4.74 59.89 1.01 64.75 0.00 M 66.04 10.15 C 65.76 10.32 65.20 10.67 64.92 10.84 C 63.44 15.09 62.86 19.67 60.66 23.66 C 57.81 29.51 53.00 34.10 47.69 37.74 C 38.33 44.92 27.99 51.27 20.71 60.74 C 14.53 68.66 12.04 79.02 12.80 88.93 C 13.41 96.58 17.58 103.75 23.71 108.31 C 31.49 114.24 41.30 116.61 50.85 117.75 C 55.36 118.50 59.49 115.75 63.98 115.97 C 68.81 115.80 73.31 118.66 78.15 117.72 C 87.33 116.43 96.66 113.82 104.05 107.99 C 110.51 102.96 114.98 95.20 115.31 86.94 C 115.54 78.11 113.70 68.90 108.35 61.69 C 100.88 51.66 89.51 45.77 80.08 37.86 C 72.93 31.68 68.69 22.37 68.63 12.92 C 68.87 11.49 67.74 9.35 66.04 10.15 Z" />
<path fill="#000000" opacity="1.00" d=" M 52.36 42.45 C 56.62 40.83 60.83 46.41 57.96 50.01 C 51.41 58.66 43.95 67.20 41.06 77.92 C 38.79 85.37 41.07 93.96 46.62 99.39 C 48.25 100.82 49.17 103.15 48.29 105.24 C 47.24 108.29 42.91 109.55 40.50 107.30 C 32.85 100.58 29.12 89.76 30.49 79.72 C 32.53 67.19 40.15 56.58 47.79 46.80 C 49.16 45.23 50.27 43.14 52.36 42.45 Z" />
<path fill="#000000" opacity="1.00" d=" M 73.46 44.68 C 76.55 43.10 79.29 45.65 81.32 47.68 C 88.83 54.44 94.50 63.43 96.39 73.44 C 98.35 83.28 98.35 94.15 93.10 103.02 C 91.21 106.12 86.07 105.77 84.58 102.48 C 83.24 100.20 84.70 97.78 85.58 95.66 C 88.46 89.18 87.81 81.83 86.52 75.05 C 84.93 67.12 80.29 60.05 74.24 54.78 C 72.82 53.38 70.87 52.12 70.61 49.96 C 70.23 47.81 71.50 45.57 73.46 44.68 Z" />
</g>
</svg>
