<?xml version="1.0" encoding="UTF-8" ?>
<!DOCTYPE svg PUBLIC "-//W3C//DTD SVG 1.1//EN" "http://www.w3.org/Graphics/SVG/1.1/DTD/svg11.dtd">
<svg width="128pt" height="128pt" viewBox="0 0 128 128" version="1.1" xmlns="http://www.w3.org/2000/svg">
<g id="#000000ff">
<path fill="#000000" opacity="1.00" d=" M 92.20 0.00 L 94.13 0.00 C 101.62 1.95 109.01 6.11 112.86 13.08 C 116.03 18.47 116.43 24.94 115.70 31.03 C 120.02 32.42 125.93 32.66 128.00 37.45 L 128.00 39.25 C 127.28 42.24 124.06 44.56 121.06 43.06 C 113.12 39.72 104.21 39.85 95.98 42.01 C 92.40 43.42 88.50 39.66 89.64 36.04 C 90.11 33.60 92.62 32.79 94.58 31.88 C 89.37 25.93 87.12 17.86 87.79 10.05 C 88.09 6.38 88.08 1.55 92.20 0.00 M 97.66 11.93 C 97.38 18.38 100.21 25.05 105.98 28.32 C 106.92 21.72 103.76 14.87 97.66 11.93 Z" />
<path fill="#000000" opacity="1.00" d=" M 37.19 12.26 C 47.29 10.22 58.56 15.82 62.50 25.44 C 64.05 30.44 56.39 34.02 53.67 29.46 C 50.59 23.47 43.14 20.07 36.75 22.77 C 29.83 25.25 26.24 34.01 29.52 40.61 C 30.76 43.80 33.69 45.71 36.21 47.80 C 38.78 50.23 37.30 54.97 33.96 55.83 C 31.26 56.73 28.85 54.71 26.87 53.17 C 19.87 47.51 16.66 37.63 19.13 28.95 C 21.32 20.55 28.64 13.81 37.19 12.26 Z" />
<path fill="#000000" opacity="1.00" d=" M 50.03 44.97 C 55.00 39.53 62.69 36.78 69.99 37.79 C 77.99 38.72 85.19 44.24 88.33 51.63 C 89.96 55.13 89.92 59.06 90.82 62.75 C 99.54 62.21 108.46 66.49 112.89 74.13 C 117.66 81.88 117.18 92.43 111.74 99.71 C 106.90 106.46 98.26 110.22 90.02 109.05 C 86.77 108.74 83.87 107.11 80.74 106.36 C 78.97 106.18 78.15 108.07 77.13 109.16 C 73.28 114.74 66.86 118.37 60.12 118.90 C 54.64 119.41 49.25 117.68 44.58 114.93 C 40.71 122.00 33.56 126.99 25.54 128.00 L 21.32 128.00 C 10.28 127.05 1.00 117.68 0.00 106.67 L 0.00 104.46 C 0.09 95.64 5.57 87.57 13.34 83.62 C 8.22 76.30 7.50 65.94 12.36 58.33 C 14.88 54.94 20.90 56.84 21.10 61.04 C 20.67 64.69 18.42 68.08 19.15 71.88 C 19.60 78.35 25.61 83.44 32.01 83.28 C 35.45 83.59 38.44 81.04 41.82 81.31 C 46.02 81.97 47.21 88.27 43.46 90.34 C 38.20 93.38 31.66 94.04 25.85 92.30 C 18.01 89.45 9.59 97.13 10.09 105.06 C 10.07 112.63 17.56 119.06 25.04 117.86 C 30.12 117.31 34.03 113.52 36.32 109.18 C 38.81 104.43 45.48 103.17 49.73 106.29 C 54.01 109.14 59.77 110.03 64.41 107.49 C 69.08 105.27 70.49 99.30 75.44 97.46 C 79.43 95.48 83.99 96.42 87.87 98.19 C 93.84 100.91 101.47 98.20 104.53 92.43 C 107.72 87.02 106.04 79.64 101.11 75.87 C 98.06 73.06 93.81 72.92 89.93 72.50 C 84.35 71.86 80.29 66.50 80.24 61.04 C 80.31 54.65 75.46 48.63 69.06 47.78 C 62.06 46.45 54.77 51.85 53.93 58.90 C 52.85 65.26 57.18 71.89 63.40 73.52 C 66.86 74.70 70.38 73.22 73.87 73.14 C 78.31 73.69 79.44 80.41 75.42 82.35 C 68.98 85.14 61.24 84.36 55.24 80.82 C 48.92 77.15 44.52 70.34 43.89 63.04 C 43.22 56.51 45.49 49.73 50.03 44.97 Z" />
</g>
</svg>
