<?xml version="1.0" encoding="UTF-8" ?>
<!DOCTYPE svg PUBLIC "-//W3C//DTD SVG 1.1//EN" "http://www.w3.org/Graphics/SVG/1.1/DTD/svg11.dtd">
<svg width="128pt" height="128pt" viewBox="0 0 128 128" version="1.1" xmlns="http://www.w3.org/2000/svg">
<g id="#000000ff">
<path fill="#000000" opacity="1.00" d=" M 81.31 0.00 L 83.69 0.00 C 89.56 1.16 94.35 5.03 98.37 9.25 C 103.93 5.47 109.74 1.75 116.30 0.00 L 118.52 0.00 C 123.36 0.66 127.25 4.56 128.00 9.37 L 128.00 11.59 C 126.26 18.29 122.38 24.18 118.43 29.78 C 122.51 33.90 126.75 38.40 128.00 44.27 L 128.00 46.55 C 127.23 50.84 123.48 54.57 118.97 54.44 C 115.78 54.17 112.61 53.46 109.62 52.32 C 106.41 50.92 106.15 45.97 108.98 44.03 C 111.48 42.15 114.70 43.68 117.47 43.92 C 115.45 41.17 113.30 38.49 110.59 36.39 C 108.91 34.84 106.43 33.52 106.28 30.96 C 105.99 28.60 107.87 26.86 109.16 25.15 C 113.08 20.60 116.11 15.33 118.26 9.74 C 112.62 11.85 107.35 14.91 102.65 18.68 C 100.71 20.07 98.57 22.11 95.97 21.33 C 93.72 20.72 92.71 18.38 91.30 16.75 C 89.44 14.06 86.73 12.19 84.06 10.38 C 84.30 13.13 85.82 16.39 83.86 18.84 C 81.92 21.53 77.23 21.32 75.72 18.31 C 74.50 15.35 73.81 12.17 73.53 8.99 C 73.42 4.53 77.10 0.85 81.31 0.00 Z" />
<path fill="#000000" opacity="1.00" d=" M 40.87 27.90 C 54.84 20.89 72.61 22.43 85.09 31.86 C 92.65 37.78 99.25 45.42 102.24 54.69 C 107.22 69.11 103.69 86.04 93.30 97.22 C 87.27 103.53 80.92 109.52 74.71 115.65 C 67.43 122.87 57.55 127.12 47.38 128.00 L 41.80 128.00 C 30.47 127.10 19.56 121.75 12.21 113.03 C 5.07 105.61 0.70 95.72 0.00 85.44 L 0.00 80.59 C 0.67 72.06 3.59 63.65 8.88 56.88 C 12.51 52.26 16.99 48.40 21.11 44.22 C 27.28 38.32 32.97 31.55 40.87 27.90 M 51.45 34.58 C 45.72 36.05 40.48 39.15 36.30 43.32 C 30.60 48.95 24.83 54.51 19.19 60.20 C 11.18 68.33 8.02 80.80 11.17 91.77 C 13.28 99.61 18.65 106.14 24.78 111.25 C 36.74 120.71 55.27 119.92 66.49 109.63 C 72.84 103.62 79.01 97.43 85.21 91.27 C 93.63 82.73 96.68 69.43 92.83 58.08 C 90.59 50.87 85.42 45.03 79.69 40.31 C 71.84 34.14 61.08 32.04 51.45 34.58 Z" />
<path fill="#000000" opacity="1.00" d=" M 65.43 49.43 C 69.45 47.96 74.89 47.34 77.83 51.17 C 81.17 55.86 78.65 61.90 76.60 66.59 C 75.39 70.08 70.21 70.84 68.07 67.83 C 65.77 65.06 67.93 61.58 68.96 58.76 C 67.02 59.52 65.12 60.50 63.02 60.75 C 59.73 60.89 57.07 57.24 58.26 54.15 C 59.29 51.12 62.83 50.51 65.43 49.43 Z" />
<path fill="#000000" opacity="1.00" d=" M 33.66 57.77 C 38.60 55.53 45.41 52.72 50.02 57.03 C 54.23 61.65 51.46 68.43 49.22 73.33 C 47.89 76.71 42.75 77.24 40.74 74.23 C 38.54 71.46 40.73 68.08 41.70 65.30 C 38.92 66.28 35.49 68.46 32.73 66.23 C 29.77 64.19 30.26 59.07 33.66 57.77 Z" />
<path fill="#000000" opacity="1.00" d=" M 59.25 77.24 C 63.35 75.70 68.96 75.05 71.91 79.02 C 75.17 83.82 72.58 89.90 70.45 94.62 C 69.04 98.12 63.65 98.44 61.78 95.18 C 59.93 92.41 62.00 89.27 62.94 86.58 C 60.97 87.31 59.04 88.25 56.93 88.49 C 53.73 88.59 51.16 85.07 52.22 82.05 C 53.12 78.98 56.66 78.30 59.25 77.24 Z" />
<path fill="#000000" opacity="1.00" d=" M 25.26 85.34 C 30.17 83.10 36.87 80.27 41.58 84.35 C 45.94 88.72 43.36 95.48 41.23 100.32 C 40.10 104.06 34.57 104.96 32.42 101.64 C 30.33 98.87 32.48 95.59 33.43 92.82 C 30.75 93.73 27.69 95.75 24.91 94.03 C 21.62 92.25 21.76 86.80 25.26 85.34 Z" />
</g>
</svg>
