<?xml version="1.0" encoding="UTF-8" ?>
<!DOCTYPE svg PUBLIC "-//W3C//DTD SVG 1.1//EN" "http://www.w3.org/Graphics/SVG/1.1/DTD/svg11.dtd">
<svg width="128pt" height="128pt" viewBox="0 0 128 128" version="1.1" xmlns="http://www.w3.org/2000/svg">
<g id="#000000ff">
<path fill="#000000" opacity="1.00" d=" M 68.75 0.00 L 72.94 0.00 C 81.75 0.76 90.27 4.32 97.11 9.89 C 99.44 11.60 99.64 15.40 97.42 17.28 C 92.00 22.38 86.15 27.58 78.86 29.71 C 71.20 31.89 63.53 28.79 56.00 27.55 C 52.77 26.81 49.06 26.83 46.48 24.47 C 43.07 21.55 42.44 15.89 45.43 12.45 C 51.25 5.55 59.68 0.74 68.75 0.00 M 54.75 17.08 C 60.57 18.02 66.22 19.86 72.10 20.41 C 77.45 20.88 81.94 17.44 85.89 14.31 C 80.43 11.30 74.12 9.30 67.83 10.29 C 62.83 10.97 58.40 13.70 54.75 17.08 Z" />
<path fill="#000000" opacity="1.00" d=" M 121.67 0.00 L 124.73 0.00 C 125.56 1.28 126.68 2.40 128.00 3.19 L 128.00 5.59 C 126.15 12.63 120.71 18.62 113.93 21.23 C 109.61 22.92 105.48 17.04 108.49 13.51 C 111.09 11.08 114.88 9.92 116.72 6.68 C 118.07 4.25 118.85 1.20 121.67 0.00 Z" />
<path fill="#000000" opacity="1.00" d=" M 97.60 30.02 C 98.35 26.32 103.68 24.89 106.07 27.89 C 109.63 32.05 111.73 37.51 111.72 43.01 C 111.67 52.27 107.20 60.66 104.05 69.15 C 100.42 78.00 100.55 87.79 97.59 96.82 C 94.88 105.38 89.38 112.83 82.79 118.83 C 76.83 124.20 69.03 127.12 61.13 128.00 L 55.18 128.00 C 26.99 125.08 2.48 100.42 0.00 72.15 L 0.00 67.59 C 0.64 59.41 3.64 51.31 9.17 45.16 C 16.03 37.50 25.06 31.41 35.24 29.35 C 38.75 28.55 42.01 32.47 40.73 35.80 C 40.00 38.51 37.02 39.09 34.73 39.85 C 27.21 41.98 20.74 46.92 15.76 52.83 C 9.77 60.20 8.76 70.55 11.37 79.47 C 15.77 95.00 27.73 107.98 42.41 114.48 C 51.09 118.30 61.53 119.58 70.27 115.24 C 76.55 112.19 81.23 106.65 84.87 100.83 C 89.85 92.76 89.97 83.02 92.08 74.03 C 94.05 65.34 98.54 57.51 100.87 48.94 C 101.90 45.05 102.34 40.56 100.10 37.00 C 99.06 34.79 96.85 32.67 97.60 30.02 Z" />
<path fill="#000000" opacity="1.00" d=" M 71.35 76.50 C 75.52 74.52 80.72 78.49 79.94 83.03 C 79.56 87.71 73.32 90.26 69.80 87.09 C 66.16 84.39 67.09 78.04 71.35 76.50 Z" />
<path fill="#000000" opacity="1.00" d=" M 61.51 93.59 C 65.87 91.90 70.82 96.36 69.58 100.87 C 68.79 105.20 62.99 107.29 59.64 104.40 C 55.75 101.65 56.92 94.88 61.51 93.59 Z" />
</g>
</svg>
