<?xml version="1.0" encoding="UTF-8" ?>
<!DOCTYPE svg PUBLIC "-//W3C//DTD SVG 1.1//EN" "http://www.w3.org/Graphics/SVG/1.1/DTD/svg11.dtd">
<svg width="128pt" height="128pt" viewBox="0 0 128 128" version="1.1" xmlns="http://www.w3.org/2000/svg">
<g id="#000000ff">
<path fill="#000000" opacity="1.00" d=" M 18.50 0.00 L 22.24 0.00 C 30.49 1.09 38.25 5.13 44.32 10.75 C 47.61 14.08 43.55 20.23 39.20 18.60 C 34.80 16.43 31.20 12.81 26.45 11.28 C 22.01 9.46 15.65 9.19 12.79 13.78 C 9.26 20.25 9.91 28.01 10.42 35.10 C 10.76 40.81 12.52 46.31 13.07 51.98 C 13.37 56.88 5.70 58.53 3.86 54.03 C 1.42 47.03 0.97 39.51 0.00 32.20 L 0.00 25.43 C 0.38 18.86 1.43 11.86 5.65 6.56 C 8.75 2.62 13.66 0.64 18.50 0.00 Z" />
<path fill="#000000" opacity="1.00" d=" M 102.73 10.81 C 109.06 9.66 116.19 8.70 122.03 12.06 C 125.94 14.22 127.34 18.78 128.00 22.91 L 128.00 29.00 C 126.71 39.19 124.50 49.87 118.18 58.23 C 115.58 62.17 108.78 59.70 109.25 55.02 C 110.57 50.80 113.75 47.37 114.89 43.03 C 116.99 35.92 119.15 28.17 117.19 20.81 C 111.68 18.27 105.66 20.99 100.00 21.45 C 96.57 21.35 94.35 17.09 96.09 14.18 C 97.35 11.77 100.36 11.43 102.73 10.81 Z" />
<path fill="#000000" opacity="1.00" d=" M 63.39 18.58 C 72.88 17.42 83.13 19.26 90.73 25.34 C 96.80 30.05 100.60 37.29 101.61 44.85 C 101.82 46.89 102.35 49.24 101.06 51.05 C 99.55 53.42 95.94 53.98 93.80 52.12 C 91.62 50.40 92.06 47.30 91.42 44.88 C 90.33 37.39 84.25 31.26 77.02 29.41 C 68.40 27.05 58.15 28.16 51.47 34.54 C 49.14 36.70 47.96 39.71 46.27 42.33 C 44.41 45.12 39.75 44.70 38.18 41.82 C 36.45 39.10 38.33 36.03 39.64 33.58 C 44.42 24.98 53.77 19.68 63.39 18.58 Z" />
<path fill="#000000" opacity="1.00" d=" M 20.48 19.56 C 22.87 18.59 25.69 19.85 26.77 22.14 C 28.72 25.62 30.82 29.11 31.95 32.96 C 32.68 37.24 26.89 40.30 23.77 37.26 C 21.34 34.13 19.97 30.31 18.04 26.87 C 16.35 24.32 17.58 20.57 20.48 19.56 Z" />
<path fill="#000000" opacity="1.00" d=" M 57.52 40.05 C 57.09 37.01 59.96 34.08 63.02 34.53 C 65.30 34.90 66.94 36.74 68.76 38.01 C 70.44 36.77 72.00 35.20 74.04 34.58 C 77.22 33.84 80.44 36.85 79.97 40.07 C 79.84 41.98 78.13 43.11 77.07 44.51 C 78.17 45.87 79.84 47.03 79.97 48.93 C 80.43 52.15 77.19 55.16 74.02 54.37 C 72.00 53.71 70.43 52.21 68.75 50.99 C 66.95 52.26 65.29 54.01 63.04 54.43 C 60.03 54.92 57.13 52.03 57.52 49.02 C 57.59 47.07 59.30 45.86 60.44 44.49 C 59.30 43.15 57.68 41.94 57.52 40.05 Z" />
<path fill="#000000" opacity="1.00" d=" M 27.31 54.29 C 36.44 50.71 47.15 51.42 55.65 56.33 C 68.41 63.53 77.97 78.07 75.65 93.10 C 72.80 111.13 56.73 126.38 38.49 128.00 L 35.41 128.00 C 17.63 127.06 2.07 111.72 0.00 94.18 L 0.00 88.99 C 1.59 73.48 12.99 59.91 27.31 54.29 M 36.18 62.31 C 23.77 64.42 13.15 74.77 10.51 87.05 C 8.63 95.63 12.62 104.40 18.89 110.17 C 24.70 116.01 33.34 119.35 41.54 117.35 C 53.42 114.47 63.42 104.23 65.62 92.15 C 67.19 83.54 62.93 74.97 56.60 69.33 C 51.24 64.19 43.66 61.09 36.18 62.31 Z" />
<path fill="#000000" opacity="1.00" d=" M 82.17 63.18 C 86.31 60.83 91.33 60.57 95.98 60.91 C 112.37 62.75 126.33 77.22 128.00 93.57 L 128.00 97.90 C 126.31 113.28 112.92 126.59 97.48 128.00 L 93.11 128.00 C 86.82 127.04 80.37 124.92 75.62 120.53 C 72.68 117.39 75.85 111.70 80.07 112.49 C 84.42 114.15 88.18 117.44 92.98 117.84 C 102.74 119.22 111.75 112.32 116.02 104.01 C 119.36 97.58 118.24 89.59 114.25 83.72 C 110.06 77.44 103.62 72.15 95.99 70.98 C 91.96 70.23 88.03 71.92 84.02 71.92 C 80.12 71.17 78.88 65.43 82.17 63.18 Z" />
<path fill="#000000" opacity="1.00" d=" M 31.69 71.70 C 33.28 68.71 37.95 68.41 39.93 71.16 C 41.40 72.86 40.74 75.24 40.84 77.28 C 43.11 77.21 45.86 76.47 47.65 78.33 C 50.21 80.51 49.53 85.14 46.42 86.46 C 44.18 87.23 41.77 87.35 39.43 87.70 C 39.15 90.00 38.95 92.32 38.36 94.56 C 37.32 97.72 32.85 98.79 30.45 96.49 C 28.22 94.74 28.92 91.68 29.03 89.23 C 26.89 89.25 24.37 89.95 22.59 88.36 C 19.92 86.36 20.24 81.74 23.22 80.20 C 25.47 79.21 27.99 79.17 30.38 78.79 C 30.75 76.42 30.73 73.92 31.69 71.70 Z" />
<path fill="#000000" opacity="1.00" d=" M 92.10 84.91 C 91.90 81.58 94.25 77.83 98.01 78.55 C 101.96 79.01 102.39 83.37 102.67 86.50 C 105.57 86.88 109.52 87.38 110.13 90.92 C 111.10 94.73 107.32 97.31 103.92 97.20 C 104.02 100.48 101.68 104.13 97.98 103.43 C 94.06 102.97 93.61 98.65 93.33 95.53 C 90.25 95.14 85.90 94.74 85.33 90.89 C 84.49 86.94 88.57 84.39 92.10 84.91 Z" />
</g>
</svg>
