<?xml version="1.0" encoding="UTF-8" ?>
<!DOCTYPE svg PUBLIC "-//W3C//DTD SVG 1.1//EN" "http://www.w3.org/Graphics/SVG/1.1/DTD/svg11.dtd">
<svg width="128pt" height="128pt" viewBox="0 0 128 128" version="1.1" xmlns="http://www.w3.org/2000/svg">
<g id="#000000ff">
<path fill="#000000" opacity="1.00" d=" M 101.69 0.00 L 104.64 0.00 C 109.93 0.66 114.87 4.04 116.89 9.05 C 119.32 15.61 119.03 22.74 119.41 29.61 C 124.19 38.73 127.40 48.71 128.00 59.05 L 128.00 65.71 C 127.08 79.54 121.97 93.20 112.58 103.53 C 99.61 118.29 80.37 126.78 60.89 128.00 L 54.24 128.00 C 36.98 127.19 20.20 119.35 8.67 106.47 C 5.00 102.17 0.82 97.73 0.00 91.89 L 0.00 89.18 C 0.70 79.76 10.98 72.72 19.97 76.01 C 39.45 82.43 61.86 75.58 75.51 60.58 C 84.22 51.01 90.43 38.27 89.44 25.07 C 89.38 19.86 87.39 14.44 89.51 9.40 C 91.44 4.30 96.35 0.74 101.69 0.00 M 101.33 10.41 C 99.63 11.19 98.32 13.03 98.53 14.94 C 98.91 19.60 99.71 24.24 99.50 28.94 C 99.49 38.84 95.86 48.37 90.88 56.79 C 77.99 78.53 51.57 91.70 26.46 87.70 C 22.84 87.22 19.37 86.10 15.81 85.32 C 11.81 84.51 8.39 89.70 10.81 93.03 C 19.20 105.71 32.90 114.87 47.98 117.23 C 73.40 121.33 101.46 108.42 112.99 84.99 C 120.02 69.98 119.48 51.72 111.81 37.05 C 106.86 29.49 111.11 19.77 107.09 11.91 C 105.79 10.21 103.29 9.49 101.33 10.41 Z" />
<path fill="#000000" opacity="1.00" d=" M 0.00 39.24 C 0.63 32.68 6.38 27.21 12.98 27.01 C 17.78 26.64 22.07 29.45 25.05 32.99 C 34.75 43.59 49.75 49.15 64.01 47.00 C 66.25 46.58 68.99 46.56 70.44 48.65 C 72.69 51.29 71.09 55.93 67.65 56.53 C 50.90 59.77 32.78 54.30 20.46 42.52 C 18.70 40.92 17.18 39.06 15.35 37.54 C 13.39 36.14 10.20 37.60 10.08 40.02 C 10.00 46.17 11.49 52.34 14.07 57.91 C 15.07 60.26 16.89 62.92 15.46 65.49 C 13.97 68.78 8.79 69.16 6.93 66.03 C 2.76 58.80 0.66 50.50 0.00 42.22 L 0.00 39.24 Z" />
<path fill="#000000" opacity="1.00" d=" M 98.46 69.46 C 101.67 66.78 107.06 69.85 106.40 73.99 C 103.10 86.76 92.92 97.16 81.02 102.38 C 76.00 103.55 72.91 96.00 77.34 93.40 C 85.09 89.20 92.40 83.17 95.66 74.74 C 96.47 72.94 96.75 70.69 98.46 69.46 Z" />
</g>
</svg>
