<?xml version="1.0" encoding="UTF-8" ?>
<!DOCTYPE svg PUBLIC "-//W3C//DTD SVG 1.1//EN" "http://www.w3.org/Graphics/SVG/1.1/DTD/svg11.dtd">
<svg width="128pt" height="128pt" viewBox="0 0 128 128" version="1.1" xmlns="http://www.w3.org/2000/svg">
<g id="#000000ff">
<path fill="#000000" opacity="1.00" d=" M 43.59 0.00 L 46.34 0.00 C 54.62 0.51 62.18 4.70 67.89 10.55 C 71.34 6.52 75.20 2.83 79.71 0.00 L 82.25 0.00 C 85.52 1.00 87.54 5.34 84.95 8.05 C 81.72 11.15 77.93 13.71 75.35 17.44 C 72.13 21.24 70.41 25.93 68.23 30.32 C 66.78 33.36 62.05 33.49 60.17 30.81 C 58.44 28.85 59.59 26.18 59.92 23.96 C 55.71 25.21 51.35 26.35 46.92 25.90 C 37.82 25.41 29.73 19.46 25.09 11.86 C 23.59 9.58 24.58 6.31 26.98 5.08 C 31.98 2.05 37.76 0.36 43.59 0.00 M 37.28 11.23 C 42.53 16.40 50.58 17.09 57.18 14.30 C 51.52 10.03 43.97 8.90 37.28 11.23 Z" />
<path fill="#000000" opacity="1.00" d=" M 20.52 47.55 C 26.51 39.91 36.07 34.61 45.97 35.63 C 52.29 35.91 57.59 40.40 63.98 40.21 C 68.53 40.37 72.59 38.09 76.78 36.69 C 85.62 33.80 95.61 36.46 102.54 42.47 C 112.24 50.82 117.23 63.55 118.34 76.09 C 119.59 90.39 116.18 105.64 106.78 116.78 C 101.70 122.91 94.37 127.17 86.40 128.00 L 83.50 128.00 C 76.28 128.09 70.24 122.71 62.98 123.31 C 56.89 123.62 51.73 127.62 45.63 128.00 L 42.71 128.00 C 36.75 127.66 30.94 125.46 26.30 121.70 C 17.28 114.46 12.12 103.33 10.25 92.11 C 7.74 76.74 10.66 59.92 20.52 47.55 M 39.28 46.11 C 31.83 48.25 26.67 54.81 23.54 61.58 C 18.30 73.40 18.04 87.30 22.50 99.40 C 25.35 106.79 30.36 114.09 38.04 116.98 C 42.54 118.75 47.58 117.98 51.84 115.91 C 59.70 112.29 69.06 112.49 76.85 116.19 C 82.04 118.78 88.46 118.50 93.34 115.35 C 101.33 110.31 105.70 101.15 107.57 92.16 C 109.93 80.09 108.37 66.86 101.59 56.41 C 97.91 50.72 92.01 45.79 84.97 45.53 C 80.60 45.21 76.74 47.56 72.72 48.88 C 65.81 51.07 58.12 50.50 51.55 47.46 C 47.74 45.70 43.38 44.87 39.28 46.11 Z" />
<path fill="#000000" opacity="1.00" d=" M 84.44 60.61 C 88.66 58.35 94.17 62.39 93.31 67.10 C 92.89 71.53 87.18 74.08 83.61 71.40 C 79.67 68.97 80.18 62.40 84.44 60.61 Z" />
<path fill="#000000" opacity="1.00" d=" M 88.42 81.50 C 92.31 79.18 97.81 82.44 97.61 86.97 C 97.85 91.54 92.28 94.85 88.37 92.47 C 84.10 90.39 84.13 83.54 88.42 81.50 Z" />
</g>
</svg>
