<?xml version="1.0" encoding="UTF-8" ?>
<!DOCTYPE svg PUBLIC "-//W3C//DTD SVG 1.1//EN" "http://www.w3.org/Graphics/SVG/1.1/DTD/svg11.dtd">
<svg width="128pt" height="128pt" viewBox="0 0 128 128" version="1.1" xmlns="http://www.w3.org/2000/svg">
<g id="#000000ff">
<path fill="#000000" opacity="1.00" d=" M 99.71 0.00 L 102.72 0.00 C 106.54 0.52 110.28 2.24 112.77 5.25 C 122.26 17.71 127.33 33.23 128.00 48.82 L 128.00 54.19 C 127.15 72.36 119.83 90.20 107.39 103.50 C 93.58 118.45 73.64 127.39 53.32 128.00 L 48.81 128.00 C 33.44 127.39 18.21 122.35 5.81 113.21 C 2.56 110.81 0.71 106.99 0.00 103.09 L 0.00 99.91 C 0.47 96.39 1.96 92.99 4.52 90.49 C 33.17 61.82 61.85 33.18 90.50 4.52 C 92.95 1.99 96.28 0.55 99.71 0.00 M 99.28 10.41 C 98.47 10.82 97.75 11.35 97.12 12.02 C 68.63 40.57 40.05 69.04 11.57 97.61 C 9.44 99.56 9.49 103.34 11.76 105.16 C 27.35 116.72 48.15 120.87 66.98 116.12 C 84.89 111.83 100.65 99.67 109.59 83.59 C 122.37 61.30 120.51 31.49 104.64 11.22 C 103.19 9.97 101.04 9.66 99.28 10.41 Z" />
<path fill="#000000" opacity="1.00" d=" M 94.46 32.52 C 98.84 30.98 103.65 35.54 102.30 40.00 C 101.40 44.49 95.22 46.32 92.01 43.08 C 88.47 40.08 89.95 33.64 94.46 32.52 Z" />
<path fill="#000000" opacity="1.00" d=" M 73.46 52.60 C 77.40 49.61 83.67 53.07 83.23 57.99 C 83.25 62.47 77.77 65.55 73.96 63.20 C 69.98 61.20 69.70 54.96 73.46 52.60 Z" />
<path fill="#000000" opacity="1.00" d=" M 96.22 59.19 C 100.42 57.31 105.51 61.35 104.67 65.85 C 104.27 70.32 98.46 72.86 94.91 70.10 C 90.87 67.54 91.69 60.71 96.22 59.19 Z" />
<path fill="#000000" opacity="1.00" d=" M 56.17 71.28 C 60.65 69.66 65.56 74.47 63.99 78.99 C 62.90 83.45 56.56 85.04 53.51 81.58 C 50.25 78.51 51.83 72.40 56.17 71.28 Z" />
<path fill="#000000" opacity="1.00" d=" M 85.35 80.44 C 89.64 79.15 94.13 83.63 92.79 87.93 C 91.81 92.45 85.36 94.10 82.37 90.52 C 79.20 87.38 81.00 81.37 85.35 80.44 Z" />
<path fill="#000000" opacity="1.00" d=" M 36.36 90.48 C 40.55 88.52 45.74 92.51 44.94 97.05 C 44.54 101.70 38.34 104.24 34.83 101.10 C 31.15 98.41 32.09 92.03 36.36 90.48 Z" />
<path fill="#000000" opacity="1.00" d=" M 61.44 93.62 C 65.04 90.87 70.83 93.49 71.20 97.98 C 71.96 102.55 66.72 106.50 62.55 104.49 C 58.12 102.84 57.45 96.12 61.44 93.62 Z" />
</g>
</svg>
