<?xml version="1.0" encoding="UTF-8" ?>
<!DOCTYPE svg PUBLIC "-//W3C//DTD SVG 1.1//EN" "http://www.w3.org/Graphics/SVG/1.1/DTD/svg11.dtd">
<svg width="128pt" height="128pt" viewBox="0 0 128 128" version="1.1" xmlns="http://www.w3.org/2000/svg">
<g id="#000000ff">
<path fill="#000000" opacity="1.00" d=" M 90.40 0.00 L 92.85 0.00 C 94.51 0.86 96.49 1.99 96.55 4.11 C 97.22 11.35 96.73 19.49 101.50 25.54 C 105.42 29.75 111.60 30.59 117.05 31.02 C 120.95 31.34 126.38 30.33 128.00 35.04 L 128.00 37.14 C 127.27 39.79 124.83 41.58 122.06 41.24 C 112.43 41.09 101.47 40.01 94.42 32.65 C 87.80 25.18 86.71 14.53 86.81 4.96 C 86.63 2.59 88.54 1.02 90.40 0.00 Z" />
<path fill="#000000" opacity="1.00" d=" M 27.60 10.65 C 40.71 0.73 60.94 1.55 72.55 13.47 C 77.47 18.12 79.60 24.74 80.94 31.18 C 82.69 39.24 89.58 45.75 97.65 47.27 C 104.54 48.58 111.43 51.43 115.96 56.99 C 125.13 67.29 126.67 83.19 120.39 95.35 C 116.71 102.96 110.03 108.53 103.18 113.21 C 88.02 123.45 69.53 127.56 51.45 128.00 L 43.08 128.00 C 37.72 127.50 32.32 127.28 27.02 126.29 C 14.66 123.90 4.32 113.65 1.77 101.33 C 0.62 95.46 0.36 89.45 0.00 83.49 L 0.00 74.65 C 0.68 61.07 3.13 47.37 9.02 35.02 C 13.51 25.81 19.43 16.97 27.60 10.65 M 42.37 14.55 C 32.37 16.91 25.89 25.68 20.85 33.99 C 9.92 52.96 8.49 75.84 11.19 97.15 C 12.23 106.82 20.25 115.20 29.87 116.66 C 44.24 118.60 59.02 118.61 73.19 115.28 C 86.05 112.24 98.44 106.13 107.64 96.51 C 115.83 87.64 116.60 72.63 108.39 63.51 C 105.10 59.50 99.96 57.93 95.06 56.96 C 83.81 54.66 74.27 45.62 71.42 34.50 C 70.35 30.25 69.67 25.68 66.86 22.14 C 61.20 14.97 51.07 12.26 42.37 14.55 Z" />
<path fill="#000000" opacity="1.00" d=" M 113.47 7.60 C 116.97 4.36 123.01 8.65 121.25 13.04 C 119.36 16.39 116.20 18.85 113.43 21.47 C 109.91 24.57 104.02 20.33 105.73 15.98 C 107.60 12.65 110.75 10.22 113.47 7.60 Z" />
<path fill="#000000" opacity="1.00" d=" M 48.45 27.59 C 52.18 25.93 56.52 30.09 54.96 33.89 C 53.60 36.39 51.44 38.53 48.97 39.94 C 45.14 41.61 40.86 37.17 42.60 33.41 C 44.01 31.04 46.07 28.98 48.45 27.59 Z" />
<path fill="#000000" opacity="1.00" d=" M 56.42 49.47 C 60.22 47.74 64.63 52.11 62.90 55.92 C 61.49 58.33 59.41 60.45 56.97 61.82 C 53.20 63.46 48.95 59.18 50.54 55.42 C 51.91 52.98 54.03 50.91 56.42 49.47 Z" />
<path fill="#000000" opacity="1.00" d=" M 32.47 51.65 C 35.96 48.85 41.47 52.84 40.07 57.03 C 38.97 59.67 36.66 61.67 34.34 63.27 C 31.01 65.06 26.64 61.85 27.28 58.14 C 27.84 55.32 30.40 53.43 32.47 51.65 Z" />
<path fill="#000000" opacity="1.00" d=" M 71.40 65.66 C 74.17 63.64 78.46 65.70 78.92 69.02 C 79.47 72.50 76.20 74.84 73.91 76.87 C 71.23 79.15 66.69 77.32 66.10 73.93 C 65.39 70.24 68.93 67.74 71.40 65.66 Z" />
<path fill="#000000" opacity="1.00" d=" M 46.45 74.73 C 49.89 72.19 55.06 75.94 53.94 79.99 C 53.02 82.69 50.64 84.63 48.43 86.29 C 45.03 88.50 40.22 84.97 41.13 81.07 C 41.90 78.34 44.34 76.46 46.45 74.73 Z" />
<path fill="#000000" opacity="1.00" d=" M 94.47 75.60 C 97.28 73.04 102.25 75.27 102.47 78.99 C 102.72 82.33 99.63 84.53 97.40 86.50 C 94.57 88.93 89.70 86.68 89.52 83.00 C 89.25 79.72 92.30 77.56 94.47 75.60 Z" />
<path fill="#000000" opacity="1.00" d=" M 71.39 87.47 C 74.23 85.53 78.50 87.72 78.82 91.08 C 79.22 94.51 76.01 96.79 73.72 98.79 C 70.78 101.23 65.86 98.75 65.86 94.98 C 65.91 91.61 69.02 89.40 71.39 87.47 Z" />
</g>
</svg>
