<?xml version="1.0" encoding="UTF-8" ?>
<!DOCTYPE svg PUBLIC "-//W3C//DTD SVG 1.1//EN" "http://www.w3.org/Graphics/SVG/1.1/DTD/svg11.dtd">
<svg width="128pt" height="128pt" viewBox="0 0 128 128" version="1.1" xmlns="http://www.w3.org/2000/svg">
<g id="#000000ff">
<path fill="#000000" opacity="1.00" d=" M 121.62 0.00 L 124.66 0.00 C 125.59 1.25 126.73 2.35 128.00 3.26 L 128.00 5.72 C 126.77 9.79 124.93 13.85 121.85 16.85 C 119.21 19.27 114.43 17.51 113.85 14.02 C 113.22 11.70 115.04 9.86 116.07 8.01 C 117.95 5.32 118.23 1.38 121.62 0.00 Z" />
<path fill="#000000" opacity="1.00" d=" M 16.49 39.47 C 34.99 22.05 59.24 9.38 85.03 8.87 C 94.52 8.49 104.05 12.46 110.39 19.53 C 119.68 29.39 121.65 45.19 115.15 57.06 C 112.31 62.99 106.41 66.71 103.68 72.71 C 101.32 77.08 100.89 82.08 100.20 86.91 C 98.75 96.73 94.12 106.07 87.02 113.02 C 78.15 122.04 65.83 127.33 53.24 128.00 L 49.65 128.00 C 35.83 127.60 22.32 121.36 13.14 111.02 C 5.21 102.37 0.65 90.91 0.00 79.22 L 0.00 74.88 C 0.61 61.50 6.63 48.54 16.49 39.47 M 80.12 19.16 C 62.31 20.72 45.60 28.77 31.64 39.67 C 25.13 44.75 18.68 50.34 14.83 57.79 C 8.55 69.57 8.54 84.42 14.86 96.19 C 20.78 107.48 32.26 115.64 44.89 117.43 C 57.75 119.47 71.42 114.88 80.43 105.48 C 86.52 99.39 89.95 91.05 90.75 82.54 C 91.49 73.10 95.79 64.07 102.60 57.50 C 111.27 48.89 110.96 33.36 101.92 25.14 C 96.28 19.42 87.80 18.06 80.12 19.16 Z" />
<path fill="#000000" opacity="1.00" d=" M 53.21 52.25 C 58.96 50.94 65.57 51.00 70.49 54.64 C 74.96 57.87 76.75 63.65 76.49 68.98 C 76.12 76.77 73.11 84.39 68.33 90.53 C 63.62 96.65 55.51 99.88 47.88 98.71 C 40.57 97.73 33.97 92.73 30.98 85.99 C 27.66 78.75 28.69 69.74 33.66 63.49 C 38.51 57.50 45.85 54.01 53.21 52.25 M 53.44 62.53 C 49.06 63.94 44.64 66.00 41.62 69.58 C 37.72 74.30 38.41 81.95 43.08 85.91 C 47.56 90.07 55.21 89.86 59.45 85.45 C 63.36 81.21 65.69 75.58 66.39 69.88 C 66.57 67.40 66.68 64.23 64.43 62.58 C 61.07 60.67 56.96 61.58 53.44 62.53 Z" />
</g>
</svg>
