<?xml version="1.0" encoding="UTF-8" ?>
<!DOCTYPE svg PUBLIC "-//W3C//DTD SVG 1.1//EN" "http://www.w3.org/Graphics/SVG/1.1/DTD/svg11.dtd">
<svg width="128pt" height="128pt" viewBox="0 0 128 128" version="1.1" xmlns="http://www.w3.org/2000/svg">
<g id="#000000ff">
<path fill="#000000" opacity="1.00" d=" M 56.61 6.53 C 60.58 1.96 68.43 2.12 72.27 6.77 C 79.42 15.05 87.42 23.67 89.12 34.94 C 100.82 32.30 112.05 37.78 122.35 42.63 C 125.44 44.12 127.20 47.27 128.00 50.49 L 128.00 53.38 C 126.85 57.62 124.09 61.12 121.88 64.85 C 117.72 71.95 112.22 78.57 104.65 82.19 C 110.07 92.34 108.66 104.18 107.77 115.19 C 107.44 120.98 101.60 125.75 95.85 124.72 C 84.48 122.45 72.31 119.56 64.07 110.77 C 55.98 119.28 44.04 121.59 33.04 123.89 C 27.23 125.12 21.23 120.41 20.79 114.55 C 19.77 103.70 17.69 91.82 23.63 81.94 C 16.62 78.39 11.28 72.38 7.08 65.86 C 4.57 61.81 1.45 58.02 0.00 53.42 L 0.00 50.55 C 0.69 47.00 2.78 43.60 6.23 42.17 C 16.57 37.75 27.75 33.49 39.19 35.55 C 40.56 23.78 49.24 15.06 56.61 6.53 M 56.75 21.76 C 52.91 26.35 49.18 31.77 49.22 38.00 C 49.27 40.97 50.75 44.80 47.73 46.86 C 44.64 49.27 41.11 46.35 37.96 45.64 C 28.18 43.33 18.81 48.07 9.88 51.38 C 14.76 59.32 19.35 68.48 28.06 72.84 C 31.21 74.53 36.43 73.79 37.54 78.07 C 38.78 82.81 32.96 84.66 31.52 88.51 C 27.87 96.61 30.30 105.73 30.84 114.21 C 39.18 112.05 48.45 111.11 55.23 105.25 C 57.71 103.30 59.06 100.38 61.09 98.04 C 63.33 96.05 67.24 96.74 68.56 99.46 C 70.24 102.35 72.16 105.18 74.98 107.06 C 81.69 111.75 89.95 113.11 97.75 114.94 C 98.20 106.99 99.69 98.77 97.48 90.96 C 96.65 87.66 94.49 85.01 92.27 82.54 C 89.95 80.27 91.04 75.78 94.14 74.83 C 97.03 73.92 100.17 73.59 102.71 71.80 C 110.04 67.12 113.49 58.77 118.22 51.83 C 110.23 48.17 101.83 43.24 92.71 44.54 C 88.67 44.80 85.07 49.63 81.01 47.01 C 77.13 44.52 79.87 39.55 79.02 35.90 C 77.45 26.60 70.03 20.08 64.54 12.94 C 61.60 15.56 59.36 18.83 56.75 21.76 Z" />
<path fill="#000000" opacity="1.00" d=" M 61.36 46.29 C 63.98 44.26 68.27 45.78 69.04 49.00 C 69.40 51.35 69.39 53.75 69.08 56.11 C 68.39 59.48 63.86 61.06 61.22 58.85 C 58.70 57.03 59.24 53.62 59.24 50.93 C 59.19 49.17 59.83 47.30 61.36 46.29 Z" />
<path fill="#000000" opacity="1.00" d=" M 43.28 59.18 C 46.27 57.31 49.71 59.38 52.58 60.51 C 55.90 61.99 56.09 67.10 53.05 68.97 C 50.24 70.90 46.86 68.98 44.09 67.95 C 40.41 66.69 39.97 61.11 43.28 59.18 Z" />
<path fill="#000000" opacity="1.00" d=" M 77.43 59.63 C 79.73 58.85 82.47 57.57 84.73 59.19 C 87.51 60.86 87.75 65.26 85.16 67.23 C 82.99 68.56 80.50 69.38 77.99 69.81 C 74.57 70.19 71.65 66.20 73.10 63.05 C 73.73 61.13 75.68 60.25 77.43 59.63 Z" />
<path fill="#000000" opacity="1.00" d=" M 53.44 76.57 C 57.23 74.58 61.92 78.96 60.17 82.87 C 58.24 86.59 54.00 92.08 49.47 88.38 C 45.28 84.49 50.02 79.03 53.44 76.57 Z" />
<path fill="#000000" opacity="1.00" d=" M 70.42 76.58 C 74.74 74.58 77.64 79.26 79.61 82.30 C 81.88 85.84 77.99 90.63 74.05 89.48 C 71.34 88.60 69.86 85.86 68.28 83.68 C 66.58 81.31 67.79 77.68 70.42 76.58 Z" />
</g>
</svg>
