<?xml version="1.0" encoding="UTF-8" ?>
<!DOCTYPE svg PUBLIC "-//W3C//DTD SVG 1.1//EN" "http://www.w3.org/Graphics/SVG/1.1/DTD/svg11.dtd">
<svg width="128pt" height="128pt" viewBox="0 0 128 128" version="1.1" xmlns="http://www.w3.org/2000/svg">
<g id="#000000ff">
<path fill="#000000" opacity="1.00" d=" M 59.37 0.00 L 61.85 0.00 C 64.58 0.88 65.63 3.53 66.39 6.04 C 73.12 2.82 80.37 0.85 87.77 0.00 L 94.30 0.00 C 106.63 0.96 118.22 7.41 125.80 17.13 C 126.82 18.49 127.43 20.09 128.00 21.67 L 128.00 24.83 C 127.11 29.47 123.22 32.58 118.86 33.80 C 106.30 38.81 91.37 38.44 79.71 31.27 C 75.78 28.70 78.31 21.83 82.99 22.38 C 87.34 23.59 91.28 26.15 95.84 26.70 C 103.40 28.22 111.07 26.17 118.03 23.26 C 113.03 17.44 106.55 12.58 98.94 10.91 C 88.53 8.44 77.69 11.41 68.39 16.18 C 68.70 20.46 69.35 24.75 68.95 29.05 C 68.88 31.60 66.55 33.88 63.97 33.71 C 61.33 33.31 58.84 32.26 56.23 31.72 C 45.29 29.43 33.51 32.84 25.18 40.20 C 14.43 49.43 9.03 64.07 10.17 78.09 C 11.09 91.88 18.49 105.40 30.44 112.63 C 36.29 116.29 43.18 117.94 50.04 118.09 C 39.90 109.84 32.76 97.99 30.49 85.09 C 28.24 72.80 29.91 59.70 35.69 48.58 C 37.19 44.95 42.88 44.86 44.55 48.38 C 46.06 50.96 44.16 53.67 43.25 56.09 C 34.45 75.74 41.76 101.40 60.16 112.84 C 71.62 119.91 87.02 119.58 98.25 112.19 C 115.13 101.53 121.88 78.79 115.79 60.14 C 114.78 56.58 112.80 53.42 111.55 49.97 C 110.52 46.43 114.54 42.93 117.93 44.24 C 119.61 44.69 120.58 46.25 121.36 47.67 C 125.31 54.99 127.35 63.21 128.00 71.47 L 128.00 77.39 C 127.10 91.87 120.91 106.19 109.94 115.85 C 102.16 122.99 91.95 127.15 81.47 128.00 L 75.68 128.00 C 70.58 127.89 65.63 124.79 60.56 126.48 C 57.87 127.13 55.15 127.70 52.40 128.00 L 47.45 128.00 C 34.27 127.41 21.64 120.95 13.19 110.88 C 5.16 101.65 0.83 89.63 0.00 77.51 L 0.00 72.45 C 0.59 55.27 9.23 38.26 23.73 28.74 C 33.95 21.85 46.90 19.56 58.94 21.99 C 58.42 16.57 57.13 11.29 55.94 6.01 C 55.11 3.34 57.17 1.11 59.37 0.00 Z" />
<path fill="#000000" opacity="1.00" d=" M 99.32 74.37 C 103.31 71.73 109.19 75.31 108.72 80.05 C 108.72 84.71 102.77 87.72 99.02 84.93 C 95.25 82.64 95.42 76.45 99.32 74.37 Z" />
<path fill="#000000" opacity="1.00" d=" M 85.16 90.28 C 89.65 88.66 94.54 93.46 92.99 97.98 C 91.90 102.47 85.52 104.06 82.48 100.56 C 79.26 97.48 80.84 91.40 85.16 90.28 Z" />
</g>
</svg>
