<?xml version="1.0" encoding="UTF-8" ?>
<!DOCTYPE svg PUBLIC "-//W3C//DTD SVG 1.1//EN" "http://www.w3.org/Graphics/SVG/1.1/DTD/svg11.dtd">
<svg width="128pt" height="128pt" viewBox="0 0 128 128" version="1.1" xmlns="http://www.w3.org/2000/svg">
<g id="#000000ff">
<path fill="#000000" opacity="1.00" d=" M 59.22 0.00 L 61.73 0.00 C 63.33 0.85 64.93 1.94 65.41 3.79 C 68.38 11.94 68.27 21.45 64.28 29.23 C 62.37 33.17 55.86 32.18 55.13 27.89 C 55.05 24.46 57.02 21.35 57.31 17.94 C 58.12 13.52 56.32 9.27 55.67 4.96 C 55.28 2.59 57.48 1.09 59.22 0.00 Z" />
<path fill="#000000" opacity="1.00" d=" M 80.03 0.00 L 82.40 0.00 C 86.08 1.59 87.24 5.74 88.60 9.15 C 89.95 13.22 90.93 17.62 90.20 21.90 C 89.08 25.81 83.09 26.41 81.22 22.80 C 80.18 20.03 80.38 16.98 79.63 14.13 C 78.92 10.96 76.89 8.26 76.27 5.07 C 76.04 2.63 78.11 1.02 80.03 0.00 Z" />
<path fill="#000000" opacity="1.00" d=" M 78.96 33.88 C 82.71 32.17 86.97 32.07 91.01 31.76 C 100.68 31.26 110.95 34.13 117.68 41.39 C 124.88 48.86 127.38 59.47 128.00 69.52 L 128.00 76.84 C 127.07 87.11 123.67 97.69 115.95 104.90 C 110.55 110.20 103.23 112.95 95.85 114.06 C 95.77 116.24 95.87 118.46 95.43 120.61 C 94.54 123.94 89.83 125.11 87.40 122.70 C 85.13 120.62 85.96 117.21 85.65 114.48 C 84.01 113.20 81.60 112.22 81.34 109.87 C 80.76 107.12 82.99 104.01 85.90 104.15 C 90.63 104.05 95.50 104.45 100.06 102.89 C 106.38 101.06 111.58 96.26 114.32 90.34 C 118.42 81.57 118.72 71.44 116.97 62.05 C 115.60 54.78 111.73 47.34 104.72 44.13 C 97.61 40.61 89.49 41.76 81.96 42.86 C 77.11 43.63 74.78 36.24 78.96 33.88 Z" />
<path fill="#000000" opacity="1.00" d=" M 25.59 39.64 C 44.03 29.64 69.63 38.88 78.04 57.92 C 82.81 68.45 82.24 80.75 78.41 91.48 C 74.12 103.48 66.01 114.90 54.04 120.10 C 45.69 123.86 36.09 123.59 27.46 120.93 C 26.07 123.59 24.86 126.70 21.91 128.00 L 19.67 128.00 C 17.65 127.08 15.60 125.45 15.75 122.98 C 16.15 120.75 17.27 118.75 18.18 116.71 C 7.93 110.74 1.03 99.89 0.00 88.07 L 0.00 82.49 C 1.30 65.42 10.06 47.88 25.59 39.64 M 35.32 46.47 C 25.62 49.19 18.37 57.32 14.34 66.27 C 10.77 74.32 8.80 83.52 10.94 92.23 C 12.67 99.38 17.93 105.27 24.35 108.64 C 31.47 112.45 40.12 114.41 47.95 111.73 C 56.03 109.08 62.09 102.36 65.96 95.01 C 70.80 85.96 73.12 75.03 70.05 65.02 C 65.83 50.97 49.22 42.72 35.32 46.47 Z" />
<path fill="#000000" opacity="1.00" d=" M 98.34 54.50 C 101.06 53.06 104.59 54.79 105.34 57.71 C 108.53 67.40 108.50 78.15 105.65 87.92 C 105.00 90.96 101.43 92.99 98.57 91.51 C 96.12 90.44 95.15 87.42 96.14 85.01 C 98.32 77.17 98.31 68.74 95.94 60.94 C 94.92 58.56 95.94 55.56 98.34 54.50 Z" />
<path fill="#000000" opacity="1.00" d=" M 35.27 57.18 C 38.18 55.29 42.46 57.50 42.72 60.92 C 43.07 62.79 41.81 64.33 40.75 65.70 C 36.03 71.39 33.22 78.43 31.45 85.55 C 30.67 88.24 31.20 91.80 28.60 93.59 C 25.73 95.82 20.97 93.66 20.82 90.02 C 20.79 85.98 21.90 82.03 23.11 78.21 C 25.81 70.59 29.10 62.65 35.27 57.18 Z" />
<path fill="#000000" opacity="1.00" d=" M 54.39 64.52 C 57.34 63.38 60.96 65.76 60.94 68.95 C 60.99 77.70 57.75 86.05 53.85 93.74 C 52.20 96.59 50.65 99.88 47.70 101.59 C 43.87 103.53 39.13 98.89 41.23 95.07 C 46.34 87.65 50.32 79.13 50.95 70.02 C 50.94 67.72 52.01 65.22 54.39 64.52 Z" />
</g>
</svg>
