<?xml version="1.0" encoding="UTF-8" ?>
<!DOCTYPE svg PUBLIC "-//W3C//DTD SVG 1.1//EN" "http://www.w3.org/Graphics/SVG/1.1/DTD/svg11.dtd">
<svg width="128pt" height="128pt" viewBox="0 0 128 128" version="1.1" xmlns="http://www.w3.org/2000/svg">
<g id="#000000ff">
<path fill="#000000" opacity="1.00" d=" M 99.28 0.00 L 102.59 0.00 C 109.51 0.66 115.23 5.17 119.84 10.05 C 123.92 14.28 127.42 19.47 128.00 25.47 L 128.00 28.14 C 127.17 36.88 120.48 43.09 116.51 50.45 C 111.87 58.84 110.70 68.51 109.54 77.87 C 107.71 91.93 99.99 105.14 88.50 113.47 C 76.49 122.30 61.75 126.67 47.03 128.00 L 40.57 128.00 C 29.72 127.53 18.22 124.60 10.48 116.52 C 3.40 109.16 0.88 98.77 0.00 88.89 L 0.00 81.88 C 1.01 66.58 5.58 51.21 14.85 38.84 C 23.31 27.51 36.57 19.99 50.59 18.34 C 59.75 17.23 69.20 15.98 77.42 11.50 C 84.70 7.66 90.79 1.18 99.28 0.00 M 98.40 10.47 C 93.59 12.27 89.78 15.88 85.39 18.44 C 75.74 24.64 64.23 26.84 53.01 28.10 C 44.27 28.94 35.77 32.41 29.12 38.17 C 19.45 46.53 14.12 58.84 11.48 71.12 C 9.30 82.44 9.00 94.95 14.63 105.36 C 18.71 113.12 27.67 116.53 35.92 117.54 C 51.04 119.19 66.68 115.42 79.59 107.45 C 90.47 100.82 98.12 89.17 99.65 76.50 C 100.97 64.78 102.99 52.66 109.53 42.57 C 112.19 38.00 116.13 34.08 117.70 28.93 C 119.03 23.82 115.11 19.49 111.81 16.14 C 108.34 12.69 103.68 8.58 98.40 10.47 Z" />
<path fill="#000000" opacity="1.00" d=" M 95.43 25.62 C 99.32 21.99 105.75 27.51 102.86 31.94 C 94.68 41.43 82.49 46.75 70.20 48.31 C 62.07 49.68 53.13 49.28 46.01 54.08 C 40.14 57.95 36.90 64.98 37.16 71.94 C 36.92 75.07 38.25 79.07 35.42 81.37 C 32.78 83.73 28.03 82.13 27.42 78.64 C 26.63 70.98 27.23 62.83 31.02 55.98 C 35.18 48.49 42.71 43.14 50.99 41.12 C 61.46 38.50 72.76 39.29 82.70 34.59 C 87.52 32.51 91.61 29.16 95.43 25.62 Z" />
<path fill="#000000" opacity="1.00" d=" M 67.45 52.60 C 71.84 50.82 76.89 55.38 75.57 59.93 C 74.74 64.23 68.98 66.25 65.66 63.40 C 61.79 60.66 62.90 53.95 67.45 52.60 Z" />
<path fill="#000000" opacity="1.00" d=" M 82.26 55.28 C 85.45 53.48 89.90 56.33 89.45 60.01 C 88.48 68.72 88.18 77.95 83.72 85.75 C 79.30 93.65 71.19 99.43 62.14 100.52 C 53.49 102.05 44.69 99.37 36.08 101.00 C 32.68 101.48 30.72 105.73 27.03 104.89 C 23.55 104.34 21.72 99.69 24.04 96.99 C 27.75 92.73 33.51 90.80 39.02 90.52 C 46.64 90.05 54.31 91.85 61.88 90.42 C 68.33 89.22 73.83 84.41 76.23 78.35 C 78.66 72.23 78.59 65.54 79.58 59.12 C 79.75 57.49 80.78 56.00 82.26 55.28 Z" />
<path fill="#000000" opacity="1.00" d=" M 50.45 57.60 C 54.82 55.83 59.84 60.33 58.59 64.86 C 57.80 69.19 52.03 71.26 48.68 68.42 C 44.79 65.69 45.89 58.95 50.45 57.60 Z" />
<path fill="#000000" opacity="1.00" d=" M 62.44 69.61 C 66.82 67.82 71.86 72.35 70.58 76.89 C 69.78 81.19 64.04 83.25 60.69 80.43 C 56.80 77.71 57.88 70.97 62.44 69.61 Z" />
<path fill="#000000" opacity="1.00" d=" M 45.29 74.51 C 49.50 72.45 54.79 76.51 53.94 81.10 C 53.50 85.71 47.36 88.21 43.86 85.11 C 40.19 82.45 41.06 76.11 45.29 74.51 Z" />
</g>
</svg>
